# xmcd
#
# Track frame offsets:
#   150
#   14390
#   27378
#   44676
#   63418
#   79678
#   95001
#   108920
#   122841
#   136748
#   149168
#   162775
#   177317
#   193352
#   208254
#   222639
#   236567
#   252243
#   266569
#   282617
#   297872
#   311851
#   329045
#
# Disc length: 4662 seconds
#
# Revision: 0
# Processed by: cddbd v1.5.1PL2 Copyright (c) Steve Scherf et al.
# Submitted via: GXTranscoder 2.0.1939
#
DISCID=7c123417
DTITLE=Joan Sebastian - Historia Musical
DYEAR=1900
DGENRE=Latin
TTITLE0=Ahora Entiendo
TTITLE1=Sentimental
TTITLE2=Que amarren a cupido
TTITLE3=Adios cariño
TTITLE4=Tatuajes
TTITLE5=Asi te quiero
TTITLE6=25 rosas
TTITLE7=Estas fallando
TTITLE8=Alma de niña
TTITLE9=Llorar
TTITLE10=Amorcito mio
TTITLE11=Mi complice
TTITLE12=Anoche hablamos
TTITLE13=Contigo o sin tí
TTITLE14=El perdedor
TTITLE15=Hasta que amanezca
TTITLE16=Juliantla
TTITLE17=Melodia para dos
TTITLE18=Oiga
TTITLE19=Un idiota
TTITLE20=Y las mariposas
TTITLE21=Rumores
TTITLE22=Secreto de amor
EXTD=
EXTT0=
EXTT1=
EXTT2=
EXTT3=
EXTT4=
EXTT5=
EXTT6=
EXTT7=
EXTT8=
EXTT9=
EXTT10=
EXTT11=
EXTT12=
EXTT13=
EXTT14=
EXTT15=
EXTT16=
EXTT17=
EXTT18=
EXTT19=
EXTT20=
EXTT21=
EXTT22=
PLAYORDER=
